<svg width="32" height="32" viewBox="0 0 32 32" fill="none" xmlns="http://www.w3.org/2000/svg">
<path fill-rule="evenodd" clip-rule="evenodd" d="M15.0872 4.0659C13.7844 4.20474 12.432 4.55406 11.4447 5.01086C11.2644 5.09595 11.1066 5.16313 11.0931 5.16313C11.0345 5.16313 10.0292 5.73638 9.65955 5.98717C9.24482 6.26036 8.84811 6.59177 8.88868 6.63208C8.91573 6.65895 9.21326 6.52011 9.44768 6.36337C9.912 6.05883 11.1382 5.49902 11.8279 5.27509C12.9188 4.93025 14.5147 4.71528 16.0429 4.71528C18.1887 4.71528 19.9558 5.087 21.5787 5.88865C21.9393 6.06331 22.3631 6.29619 22.5254 6.39919C25.3384 8.23538 26.9342 10.1074 27.7502 12.5302C28.4534 14.6262 28.4669 17.4028 27.7772 19.4271C27.1281 21.3394 26.0551 22.8935 24.3737 24.349C23.6028 25.0208 22.0566 25.8851 21.0152 26.2344C20.9552 26.2561 20.8458 26.2925 20.7278 26.3317L20.7277 26.3318C20.6506 26.3574 20.5698 26.3843 20.4968 26.4091C19.9107 26.6106 18.8063 26.8614 18.2067 26.9286C17.1834 27.0495 16.8814 27.0719 16.4621 27.0495C15.5425 27.0002 14.8573 26.6061 14.5643 25.9523C14.4696 25.7418 14.4516 25.6433 14.4651 25.4059C14.4786 25.1551 14.5192 25.0431 14.7446 24.6043C15.0782 23.9459 15.3126 23.6011 15.6146 23.3279C15.8941 23.0726 16.0474 22.8487 16.0068 22.7457C15.9662 22.6382 15.8851 22.6561 15.6913 22.8129C15.4478 23.0099 15.3081 23.0592 14.8032 23.1263C14.438 23.1711 14.2307 23.1756 13.6762 23.1263C12.5041 23.0323 11.3951 22.7322 10.4169 22.2441C9.82635 21.9485 9.64603 21.8186 9.01941 21.2185C8.59115 20.811 8.17642 20.5243 8.11331 20.587C8.07273 20.6229 8.56411 21.2006 8.88417 21.4962C9.50628 22.0739 10.214 22.6695 10.489 22.8576C10.8271 23.086 10.8497 23.0995 11.607 23.4936C12.8557 24.1385 13.2389 24.4789 13.2389 24.9401C13.2389 25.3298 12.9819 25.4955 12.3824 25.4955C11.6205 25.4955 10.5431 25.1238 9.7452 24.5863C9.29891 24.2818 8.46042 23.5339 7.55882 22.6248C6.95926 22.0246 6.73837 21.7694 6.38223 21.2499C6.23347 21.0349 6.12979 20.9274 6.07118 20.9274C5.81423 20.9274 5.94496 21.6664 6.37322 22.6964C6.44985 22.8666 6.55805 23.1398 6.61665 23.301C6.71132 23.5608 6.79246 23.6593 7.30637 24.1833C7.85635 24.7386 8.3928 25.2044 8.8391 25.5179C9.87143 26.2389 10.0833 26.3688 10.6693 26.6554C12.0037 27.3093 13.8835 27.8198 15.4523 27.9586C16.408 28.0393 17.7604 27.9989 18.4682 27.8646C19.1264 27.7392 19.789 27.578 20.1587 27.457C20.3841 27.3854 20.614 27.3137 20.6771 27.3003C20.916 27.2466 21.9393 26.8166 22.4623 26.5479C23.9499 25.7821 25.0904 24.8954 26.1769 23.6548C27.0154 22.6964 27.4752 21.9843 28.0837 20.7035C28.3948 20.0541 28.7374 18.8763 28.9087 17.882C29.0304 17.1968 29.0304 14.8053 28.9087 14.1201C28.6968 12.8751 28.3542 11.8092 27.8629 10.8374C27.5879 10.2865 27.1821 9.60131 26.9658 9.31917C26.9457 9.29202 26.9154 9.25172 26.8807 9.20563L26.8795 9.20405L26.8792 9.20363L26.8786 9.2029C26.8279 9.13552 26.7682 9.05622 26.7178 8.98776C26.0371 8.07863 24.7568 6.85152 23.8102 6.19318C23.179 5.75429 22.4848 5.36466 21.8041 5.05565C21.3353 4.84516 20.357 4.49136 20.1136 4.44657C20.0144 4.42866 19.78 4.37044 19.5952 4.32118C18.4817 4.0256 16.5388 3.91811 15.0872 4.0659ZM5.00279 5.74533C4.82698 5.84834 4.71878 6.04539 4.71878 6.26036C4.71878 6.43054 5.00279 7.76961 5.07492 7.94875C5.10196 8.00697 5.21466 8.35181 5.32736 8.72353C5.57981 9.52518 5.84578 10.2238 6.05315 10.6358C6.1388 10.8015 6.1929 10.9672 6.17938 10.9986C6.16585 11.0344 6.03963 11.1553 5.89988 11.2718C5.46711 11.6166 4.95771 12.2033 4.6692 12.6959C4.39421 13.1617 4.1102 14.2321 4.24544 14.2992C4.29052 14.3216 4.5024 14.044 4.94418 13.3812C5.404 12.687 6.07118 12.0376 7.07647 11.3031C7.33793 11.1106 7.46866 10.9852 7.46866 10.9269C7.46866 10.8822 7.36498 10.7209 7.23876 10.5776C6.5851 9.82523 5.3454 7.06201 5.53473 6.77538C5.56629 6.72164 5.60235 6.73956 5.72407 6.86943C5.8007 6.959 5.93594 7.12023 6.01709 7.22771C6.35068 7.67556 6.56256 7.96218 6.90516 8.4369C7.22974 8.88475 7.42809 9.13555 8.04118 9.87898C8.14486 10.0089 8.28461 10.1969 8.35223 10.3L8.46944 10.4925L8.37477 10.6448C8.32068 10.7254 8.24404 10.8239 8.20347 10.8553C8.1629 10.8911 8.01864 11.0882 7.8834 11.2987C7.74365 11.5091 7.4867 11.8182 7.31088 11.9928C6.69329 12.5974 6.34166 13.0005 6.34166 13.1124C6.34166 13.2781 6.46789 13.3722 6.63018 13.3364C6.67349 13.3262 6.72689 13.3147 6.77572 13.3041L6.77607 13.3041L6.77615 13.304L6.77657 13.3039L6.7768 13.3039L6.77703 13.3038L6.77718 13.3038C6.81418 13.2958 6.84846 13.2884 6.87361 13.2826C7.02688 13.2468 6.99983 13.3856 6.77894 13.7394C6.48592 14.2097 6.20642 14.774 6.20642 14.8949C6.20642 15.0875 6.31462 15.1725 6.55354 15.1725H6.76992L6.76091 15.3517C6.7564 15.4502 6.71132 15.6607 6.65722 15.8219C6.60313 15.9832 6.54903 16.2116 6.53551 16.337C6.51748 16.5251 6.52649 16.5743 6.60764 16.646C6.67526 16.7042 6.73386 16.7221 6.82402 16.6997L6.84369 16.6949L6.87202 16.688L6.87305 16.6878C7.04813 16.645 7.12812 16.6254 7.18149 16.6544C7.22639 16.6787 7.25245 16.7373 7.30043 16.8453C7.30519 16.856 7.31016 16.8672 7.31539 16.8789C7.7166 17.7925 8.18994 18.724 8.44239 19.0957C9.43415 20.5512 10.5341 21.335 11.9271 21.5768C12.5627 21.6888 12.6258 21.6843 13.7348 21.3842C14.402 21.2096 14.5913 21.1065 14.5327 20.9543C14.4741 20.811 14.2712 20.7438 13.6401 20.6587C12.7295 20.5378 11.9992 20.2915 12.1976 20.1705C12.2291 20.1482 12.3418 20.1213 12.4455 20.1078C12.6889 20.072 13.0451 19.9153 13.2209 19.763C13.302 19.6958 13.4643 19.6063 13.5815 19.5615C14.0684 19.3913 14.0819 19.3644 13.7979 18.9479C13.6717 18.7643 13.5274 18.4956 13.4688 18.3478C13.4147 18.2045 13.3336 17.994 13.2885 17.882C13.2479 17.7701 13.1848 17.6805 13.1487 17.6805C13.1127 17.6805 13 17.8238 12.9008 17.9985C12.4004 18.8897 12.2652 19.042 11.864 19.1584C11.4402 19.2838 11.0525 19.1226 9.98413 18.3747C9.43415 17.9895 9.18621 17.7387 9.00589 17.3894C8.59566 16.5878 8.51001 16.4041 8.42436 16.1354C8.30264 15.7592 8.25756 15.1367 8.32518 14.877C8.41534 14.5411 8.77599 13.8559 9.0104 13.5782C9.30342 13.2244 9.6325 13.0094 9.97962 12.9467L10.2546 12.8975L10.5386 13.1124C10.8271 13.3319 12.1119 14.5948 12.1119 14.662C12.1119 14.6799 12.3373 14.8814 12.6123 15.1054C12.9819 15.4099 13.1307 15.5667 13.1938 15.701C13.2389 15.804 13.4057 16.1623 13.5635 16.4937C13.7258 16.8251 13.879 17.17 13.9106 17.255C13.9827 17.4879 14.2171 17.7477 14.3434 17.7477C14.402 17.7477 14.5057 17.7029 14.5778 17.6447C14.8978 17.3849 15.0466 17.3267 15.4027 17.3222C15.7814 17.3222 16.0023 17.4163 16.124 17.6268C16.2277 17.8059 16.1466 17.8865 15.7724 17.9806C15.1323 18.1328 14.722 18.612 14.988 18.8942C15.0376 18.939 15.1864 19.0599 15.3261 19.1584C15.4659 19.2569 15.6101 19.4047 15.6552 19.4943C15.8941 19.9914 16.0744 20.7483 16.0789 21.2946C16.0789 21.6977 16.2232 21.6888 16.4802 21.2633C16.7191 20.8737 16.8408 20.4706 16.8453 20.0675C16.8453 19.66 16.7326 19.0509 16.6154 18.8136C16.5117 18.612 16.5072 18.2851 16.6019 18.0388C16.6379 17.9403 16.683 17.6581 16.6965 17.4163C16.7191 17.0625 16.7416 16.955 16.8092 16.8878C17.0211 16.6773 17.0797 16.9908 16.94 17.573C16.7101 18.5404 16.7056 18.6658 16.8814 18.6658C16.9715 18.6658 17.0076 18.5986 17.1789 18.1731C17.5576 17.2192 17.6117 17.0043 17.6117 16.5116C17.6117 16.2519 17.6387 15.9518 17.6838 15.7995C17.7649 15.4726 18.067 14.9083 18.644 13.9947C18.7166 13.8791 18.7921 13.7589 18.8647 13.6433L18.8655 13.642C19.0315 13.3776 19.1823 13.1377 19.2481 13.0318C19.5907 12.4855 19.5321 12.3914 18.8559 12.4093C18.6034 12.4138 18.2698 12.4496 18.1075 12.4855C17.4223 12.6422 17.2691 12.6601 16.976 12.6109C16.6244 12.5482 15.3216 12.2705 14.9384 12.172C13.5905 11.8226 13.3336 11.7331 12.4094 11.2584C10.9579 10.5149 9.92553 9.87898 9.09605 9.21616C8.17642 8.48169 5.95848 6.39023 5.56629 5.88864C5.35892 5.62441 5.24622 5.59754 5.00279 5.74533ZM18.5178 12.9064L18.6215 12.9915L18.5358 13.1841C18.4456 13.3767 18.1301 13.8648 17.8326 14.2679C17.5936 14.5903 17.5486 14.5411 17.5215 13.9634C17.5035 13.5827 17.4809 13.4394 17.4088 13.3274C17.3547 13.2334 17.3367 13.1662 17.3637 13.1393C17.4088 13.099 18.2563 12.8303 18.36 12.8258C18.3915 12.8213 18.4592 12.8572 18.5178 12.9064ZM9.81282 15.5353C9.92102 14.9262 10.169 14.2186 10.3448 14.0171C10.4304 13.9231 10.48 13.9186 10.5882 14.0171C10.6919 14.1112 10.6919 14.1156 10.5566 14.4067C10.2997 14.9665 10.196 15.3696 10.196 15.8443C10.196 16.2384 10.214 16.3325 10.3312 16.6236C10.4394 16.8923 10.5025 16.9863 10.6829 17.1297C10.8812 17.2819 10.9263 17.2998 11.1697 17.2998C11.4673 17.2998 11.7513 17.2058 11.9631 17.0311C12.1344 16.8968 12.4996 16.4355 12.5402 16.3101C12.5582 16.2653 12.5988 16.225 12.6393 16.225C12.8197 16.225 12.45 16.8386 12.0172 17.2595C11.7152 17.5506 11.3501 17.6939 11.0435 17.6402C10.6874 17.5775 10.1329 17.0759 9.95257 16.6594C9.81733 16.3459 9.75873 15.8578 9.81282 15.5353ZM4.69173 14.6934C4.62862 14.7337 4.47535 15.0292 4.40322 15.2621C4.37167 15.3606 4.33109 15.4592 4.31757 15.486C4.28601 15.5264 4.15528 15.9652 4.04709 16.3862C3.97947 16.637 3.98398 16.9684 4.06512 17.8149C4.13725 18.5762 4.19135 18.8225 4.29052 18.8225C4.38068 18.8225 4.41224 18.7016 4.4483 18.1955C4.47986 17.8014 4.51592 17.6357 4.69173 17.161L4.8991 16.5967L4.91263 15.6876C4.92615 14.9576 4.91713 14.7695 4.86755 14.7202C4.79542 14.6486 4.76386 14.6441 4.69173 14.6934ZM10.8947 15.8175C10.8947 15.6159 11.039 14.9845 11.1246 14.8277C11.1472 14.7829 11.2058 14.7471 11.2464 14.7471C11.341 14.7471 12.2426 15.5756 12.3328 15.7458C12.3869 15.8488 12.3824 15.8712 12.2426 16.0503C11.9631 16.4041 11.7107 16.5833 11.3996 16.6505C11.2689 16.6773 11.2328 16.6639 11.1021 16.5251C10.9443 16.3594 10.8947 16.1892 10.8947 15.8175ZM4.92165 18.5225C4.88558 18.5807 4.81345 18.7956 4.75936 18.9972C4.68272 19.2928 4.6692 19.4674 4.68272 19.9108C4.69625 20.4213 4.70526 20.4796 4.85853 20.8154C5.10197 21.3618 5.21467 21.317 5.21467 20.6587C5.21467 20.4751 5.23721 20.0989 5.26425 19.8302C5.33638 19.1674 5.32737 18.8763 5.24171 18.6658C5.12901 18.4015 5.03435 18.3568 4.92165 18.5225ZM14.9565 19.5436C14.8843 19.4226 14.8347 19.3107 14.8483 19.2972C15.0241 19.1271 15.4478 19.875 15.4478 20.3497C15.4478 20.5691 15.3802 20.5467 15.3351 20.3139C15.3216 20.2198 15.2585 20.0675 15.1954 19.978C15.1368 19.8839 15.0872 19.7988 15.0872 19.7899C15.0872 19.7764 15.0286 19.669 14.9565 19.5436Z" fill="white"/>
</svg>
